<?xml version="1.0" encoding="UTF-8"?>
<!DOCTYPE svg PUBLIC "-//W3C//DTD SVG 1.1//EN" "http://www.w3.org/Graphics/SVG/1.1/DTD/svg11.dtd">
<!-- Creator: CorelDRAW -->
<svg xmlns="http://www.w3.org/2000/svg" xml:space="preserve" width="30.3239mm" height="32.6349mm" version="1.1" style="shape-rendering:geometricPrecision; text-rendering:geometricPrecision; image-rendering:optimizeQuality; fill-rule:evenodd; clip-rule:evenodd"
viewBox="0 0 1865.71 2007.9"
 xmlns:xlink="http://www.w3.org/1999/xlink"
 xmlns:xodm="http://www.corel.com/coreldraw/odm/2003">
 <defs>
  <style type="text/css">
   <![CDATA[
    .fil0 {fill:#CE6FEA}
    .fil1 {fill:#E96FD5}
   ]]>
  </style>
 </defs>
 <g id="Слой_x0020_1">
  <metadata id="CorelCorpID_0Corel-Layer"/>
  <g id="_1805123900912">
   <path class="fil0" d="M0.1 1068.75l-0.04 370.62c4.37,17.38 888.9,545.03 921.39,563.72 29.62,17.04 59.78,-14.21 116.59,-46.72 40.57,-23.21 78.4,-46.42 118.3,-69.19 96.28,-54.91 645.69,-383.38 707.86,-412.26l1.35 -250.75c-20.91,1.54 -19.85,1.86 -38.02,1.75 -69.18,-0.41 -78.76,9.29 -86.2,-15.82 -22.83,8.9 -23.69,19.93 -54.28,29.33l-0.07 112.83c-67.24,40.82 -729.36,440.4 -743.76,440 -19.48,-0.53 -665.63,-394.61 -750.23,-439.11l-0.64 -104.02c-51.61,0.04 -109.08,14.51 -114.52,-38.8l0.53 -462.01c-15.46,24.34 -0.89,293.68 -7.83,315.2 -4.25,13.16 1.72,7.83 -12.1,9.87 -3.38,0.5 -13.73,-1.07 -17.77,-1.58 -22.24,-2.8 -17.79,-1.43 -35.11,-12.6l-5.45 9.52z"/>
   <path class="fil1" d="M1741.34 1210.11c7.44,25.11 17.02,15.42 86.2,15.82 18.17,0.1 17.11,-0.21 38.02,-1.75l0.16 -1211.88 -818.96 468.32c-150.25,89.47 -113.41,25.99 -115.77,245.19 -0.54,50.33 -1.03,39.27 23.85,66.13 14.78,15.96 25.07,34.17 38.72,48.45 1.13,-133.16 -17.47,-127.7 119.37,-127.67 19.11,-59.78 -0.69,-87.75 60.83,-178.03 86.52,-126.97 228.7,-129.36 343.4,-146.41 31.66,-4.7 62.83,-17.31 90.12,-29.5 27.81,-12.43 56.8,-33.95 78.45,-42.53l1.42 411.13c33.13,9.41 88.22,38.99 78.5,80.33 -10.21,43.41 -92.85,56.47 -78.51,121.16 5.39,24.32 139.25,61.46 93.26,212.4 -14.56,47.79 -29.99,44.96 -39.06,68.84z"/>
   <path class="fil1" d="M0.1 1068.75l5.45 -9.52c17.32,11.17 12.87,9.8 35.11,12.6 4.05,0.51 14.4,2.09 17.77,1.58 13.82,-2.04 7.86,3.29 12.1,-9.87 6.94,-21.53 -7.63,-290.86 7.83,-315.2 4.23,-17.52 9.98,-20.07 18.38,-33.27l93.5 -2.76 3.03 -395.87c172.94,129.92 327.87,3.55 490.1,210.36 16.41,20.92 31.29,45.17 43.2,71.18l23.96 64.53c0.19,0.58 3.9,11.29 4.23,12.1 0.55,1.35 1.27,2.83 1.8,4.04 0.54,1.24 1.51,3.06 1.96,4.07 0.47,1.03 1.29,2.79 2.06,4.12l-0.46 -239.26c-36.61,-20.6 -732.7,-438.11 -760.13,-447.59l0.1 1068.75z"/>
   <path class="fil0" d="M114.74 940.32l0.09 272.09 79.17 0.39 0.17 -189.77c35.05,-4.28 81.93,-1.49 118.4,-1.63 43.76,-0.17 77.01,-3.77 92.22,28.96 17.01,36.6 -2.18,67.19 -28.6,77.63 -24.22,9.57 -89.99,5.09 -119.56,5.4l-31.69 78.77c104.29,0.58 177.42,15.38 235.82,-51.67 21.12,-24.24 34.44,-66.18 26.15,-109.87 -9.4,-49.54 -31.64,-60.35 -53.08,-84.35l20.56 -52.29c15.87,-79.16 -30.49,-138.05 -89.69,-157.03 -37.73,-12.1 -199.6,-7.46 -250.05,-6.44l0.08 189.81zm258 -26.41c-17.12,18.03 -25.64,27.83 -70.47,28.06 -32.96,0.17 -66.11,-0.2 -99.11,-0.16l-8.9 -2 -0.1 -23.08 -0.04 -85.5c28.67,-2.71 106.14,-3.97 133.78,-0.58 44.71,5.48 54.64,39.67 44.84,83.26z"/>
   <path class="fil0" d="M931.85 1187.52l-0.57 408.36c22.16,-7.41 71.22,-39.56 94.28,-53.04 46.08,-26.92 91.37,-43.96 91.37,-72.21l0.07 -221.94c-137.02,3.61 -123.19,4.57 -123.22,-128.03 -16.65,15.24 -25.47,42.01 -61.93,66.86z"/>
   <path class="fil0" d="M910.37 961.44c20.35,232.06 -336.31,246.5 -317.38,-9.73 16.91,-72.24 76.49,-133.3 162.4,-131.56 81.58,1.66 146.6,64.36 154.98,141.28zm-393.28 -11.43c-14.67,24.86 -3.69,77.3 6.41,106.35 91.11,262.31 484.64,190.93 467.04,-94.93 -12.79,-120.27 -103.12,-215.7 -229.82,-221.13 -68.99,-2.96 -129.3,26.41 -166.51,58.75 -29.93,26.02 -84.12,95.51 -77.12,150.95z"/>
   <path class="fil0" d="M1155.64 970.57l105.38 181.88c41.78,72.37 18.82,59.01 120.31,59.01l0.12 -319.7 0.06 -141.53 -79.52 0 0.09 126.35 0.01 184.55 -60.53 -95.94c-15.92,-36.03 -42.23,-74.07 -63.23,-110.25 -72.74,-125.33 -41.35,-104.71 -147.5,-104.71l0.1 211.42 0.09 249.82 79.18 -0.01 0.05 -244.81 0.49 -67.32 44.9 71.24z"/>
   <g>
    <path class="fil1" d="M1421.94 866.33c13.98,5.74 82.93,16.18 82.93,16.18 4.61,18.75 21.68,32.25 37.92,40.15 22.79,11.08 53.9,15.56 79.47,24.78 41.7,15.02 112.44,55.98 115.45,91.58 27.18,25.66 12.59,85.95 -2.87,114.03 -56.92,103.41 -238.59,71.57 -298.59,8.55l53.58 -50.88c36.01,19.47 71.68,51.2 133.23,34.65 35.09,-9.43 57.19,-40.44 44.74,-71.16l-13.71 -18.99c-0.6,-0.72 -2.25,-1.31 -2.68,-3.24 -0.44,-1.94 -1.9,-2.11 -2.69,-3.27 -19.32,-5.56 -49.43,-18.88 -74.35,-27.12 -25.8,-8.53 -51.34,-17.72 -74.05,-30.31 -41.21,-22.85 -83.84,-58.57 -78.38,-124.95zm83.21 15c1.09,-2.76 0.94,-7.66 -0.02,-20.21 32.59,-102.18 171.26,-10.96 173.61,-10.08 16.04,-20.4 40.79,-32.97 51.02,-58.79 -52.24,-29.55 -100.6,-63.12 -187.07,-50.38 -68.99,10.16 -113.87,54.13 -120.75,124.46l83.21 15z"/>
   </g>
  </g>
 </g>
</svg>
